
<svg width="222px" height="94px" viewBox="0 0 222 94" version="1.1">
    <g id="Page-1" stroke="none" stroke-width="1" fill="none" fill-rule="evenodd">
        <g id="Homepage-final-version" transform="translate(-69.000000, -2631.000000)">
            <g id="Group-12" transform="translate(100.000000, 2628.000000)">
                <g id="download-(1)" transform="translate(180.000000, 33.500000) scale(-1, 1) translate(-180.000000, -33.500000) translate(169.000000, 3.000000)" fill="#61CBE3" fill-rule="nonzero">
                    <path d="M21.9292563,0 C20.4695201,3.60388222 17.5587584,6.43382954 13.9044456,7.80201 C13.9115724,4.11378709 17.9881192,0.099298309 21.9292563,0 Z M13.7547821,54.5005862 C11.0465867,51.1599074 7.39052284,49.1101066 4.64669324,50.3726136 C6.90589839,54.8339448 11.4884502,56.4510887 13.7547821,54.5005862 Z M9.47868407,47.9185268 C7.56156676,44.2090257 4.39725419,41.5350641 1.46100018,42.2443378 C2.79371741,46.9681002 6.8845179,49.3796305 9.50006456,47.9185268 L9.47868407,47.9185268 Z M6.72772764,40.7690486 C5.60168848,36.804209 3.01464914,33.5628285 0,33.683405 C0.356341506,38.5703003 3.86986876,41.6769188 6.72772764,40.7690486 Z M5.43064456,33.279119 C5.10281037,29.2007956 3.18569307,25.5338509 0.206678074,25.0444521 C-0.384848827,29.9100692 2.45162956,33.6195703 5.43064456,33.279119 Z M5.60881531,25.7040766 C6.0791861,21.6328459 4.8961323,17.6183571 2.09528806,16.5757249 C0.55589275,21.2782091 2.62980032,25.4558308 5.60881531,25.7040766 Z M7.26936673,18.2779816 C8.55219615,14.3486057 8.24574246,10.1355203 5.7014641,8.55384005 C3.17856624,12.9158729 4.39725419,17.4552242 7.26936673,18.2779816 Z M10.405172,11.2419871 C12.4648259,7.5892279 13.1276211,3.32649335 10.9396842,1.25541434 C7.49029846,5.13514112 7.75399118,9.87308901 10.405172,11.2419871 Z M12.2011332,12.2633412 C14.8808213,13.6818884 18.3230803,12.3697322 20.6535537,9.78797618 C18.5297583,7.7239899 14.2892944,8.62476741 12.2011332,12.2633412 Z M9.26487916,18.9234206 C12.165499,19.7674562 15.272797,17.8666029 16.9689825,14.9514882 C14.38907,13.369808 10.5263281,15.0082301 9.26487916,18.9234206 Z M7.69697654,25.9523223 C10.7044988,26.2147536 13.3984406,23.7606668 14.4389578,20.6256773 C11.5953526,19.5759524 8.16022049,21.8952771 7.66134239,25.9523223 L7.69697654,25.9523223 Z M7.52593261,33.1301715 C10.5263281,32.8039057 12.6786308,29.8746055 13.0991138,26.6190396 C10.1058451,26.1367335 7.1909716,29.0802191 7.49029846,33.1301715 L7.52593261,33.1301715 Z M8.7517474,40.2229079 C11.6024794,39.3150376 13.1703821,36.0098225 12.9565772,32.7329783 C9.92767437,32.8322766 7.62570824,36.2509755 8.71611324,40.2158152 L8.7517474,40.2229079 Z M11.3815477,46.9964711 C14.0256017,45.5779238 14.852314,41.9535356 13.9970944,38.7688969 C11.0537135,39.4497996 9.45730358,43.2656918 11.3459136,46.9893784 L11.3815477,46.9964711 Z M15.3725726,53.1955227 C17.6602851,51.2379275 17.6959192,47.5213336 16.2064117,44.5140134 C13.4839626,45.7765205 12.6928845,49.8690293 15.3725726,53.1955227 Z M21.6014221,59.9194368 C5.19545916,47.7979503 2.09528806,25.3068833 12.878182,9.22055727 C1.35921458,25.810298 4.91473905,48.4723844 20.9671342,60.7776579 C21.3163489,61.0471818 21.7510855,61.0755528 21.9292563,60.8414925 C22.1074271,60.6074322 21.9292563,60.2173317 21.6156758,59.9549004 L21.6014221,59.9194368 Z" id="Shape"></path>
                    <path d="M221.929256,0 C220.46952,3.60388222 217.558758,6.43382954 213.904446,7.80201 C213.911572,4.11378709 217.988119,0.099298309 221.929256,0 Z M213.754782,54.5005862 C211.046587,51.1599074 207.390523,49.1101066 204.646693,50.3726136 C206.905898,54.8339448 211.48845,56.4510887 213.754782,54.5005862 Z M209.478684,47.9185268 C207.561567,44.2090257 204.397254,41.5350641 201.461,42.2443378 C202.793717,46.9681002 206.884518,49.3796305 209.500065,47.9185268 L209.478684,47.9185268 Z M206.727728,40.7690486 C205.601688,36.804209 203.014649,33.5628285 200,33.683405 C200.356342,38.5703003 203.869869,41.6769188 206.727728,40.7690486 Z M205.430645,33.279119 C205.10281,29.2007956 203.185693,25.5338509 200.206678,25.0444521 C199.615151,29.9100692 202.45163,33.6195703 205.430645,33.279119 Z M205.608815,25.7040766 C206.079186,21.6328459 204.896132,17.6183571 202.095288,16.5757249 C200.555893,21.2782091 202.6298,25.4558308 205.608815,25.7040766 Z M207.269367,18.2779816 C208.552196,14.3486057 208.245742,10.1355203 205.701464,8.55384005 C203.178566,12.9158729 204.397254,17.4552242 207.269367,18.2779816 Z M210.405172,11.2419871 C212.464826,7.5892279 213.127621,3.32649335 210.939684,1.25541434 C207.490298,5.13514112 207.753991,9.87308901 210.405172,11.2419871 Z M212.201133,12.2633412 C214.880821,13.6818884 218.32308,12.3697322 220.653554,9.78797618 C218.529758,7.7239899 214.289294,8.62476741 212.201133,12.2633412 Z M209.264879,18.9234206 C212.165499,19.7674562 215.272797,17.8666029 216.968983,14.9514882 C214.38907,13.369808 210.526328,15.0082301 209.264879,18.9234206 Z M207.696977,25.9523223 C210.704499,26.2147536 213.398441,23.7606668 214.438958,20.6256773 C211.595353,19.5759524 208.16022,21.8952771 207.661342,25.9523223 L207.696977,25.9523223 Z M207.525933,33.1301715 C210.526328,32.8039057 212.678631,29.8746055 213.099114,26.6190396 C210.105845,26.1367335 207.190972,29.0802191 207.490298,33.1301715 L207.525933,33.1301715 Z M208.751747,40.2229079 C211.602479,39.3150376 213.170382,36.0098225 212.956577,32.7329783 C209.927674,32.8322766 207.625708,36.2509755 208.716113,40.2158152 L208.751747,40.2229079 Z M211.381548,46.9964711 C214.025602,45.5779238 214.852314,41.9535356 213.997094,38.7688969 C211.053714,39.4497996 209.457304,43.2656918 211.345914,46.9893784 L211.381548,46.9964711 Z M215.372573,53.1955227 C217.660285,51.2379275 217.695919,47.5213336 216.206412,44.5140134 C213.483963,45.7765205 212.692884,49.8690293 215.372573,53.1955227 Z M221.601422,59.9194368 C205.195459,47.7979503 202.095288,25.3068833 212.878182,9.22055727 C201.359215,25.810298 204.914739,48.4723844 220.967134,60.7776579 C221.316349,61.0471818 221.751086,61.0755528 221.929256,60.8414925 C222.107427,60.6074322 221.929256,60.2173317 221.615676,59.9549004 L221.601422,59.9194368 Z" id="Shape" transform="translate(211.000000, 30.500000) scale(-1, 1) translate(-211.000000, -30.500000) "></path>
                </g>
                <text id="Recognized-as-Best-1" font-family="Poppins-Regular, Poppins" font-size="14" font-weight="normal" fill="#253976">
                    <tspan x="30.229" y="15">Recognized as</tspan>
                    <tspan x="131.771" y="15" font-size="16"> </tspan>
                    <tspan x="10.272" y="38" font-family="Poppins-Bold, Poppins" font-weight="bold">Best 10 UI/UX design</tspan>
                    <tspan x="151.728" y="38" font-size="16"> </tspan>
                    <tspan x="47.176" y="61">company</tspan>
                </text>
                <text id="by-CEO-Insights-Maga" opacity="0.600000024" font-family="Poppins-Regular, Poppins" font-size="12" font-weight="normal" fill="#253976">
                    <tspan x="3" y="93">by </tspan>
                    <tspan x="21.072" y="93" font-family="Poppins-Bold, Poppins" font-weight="bold">CEO Insights</tspan>
                    <tspan x="98.028" y="93"> Magazine</tspan>
                </text>
                <path d="M12,71.5 L151,71.5" id="Line-3-Copy" stroke="#61CBE3" stroke-width="0.5" transform="translate(81.500000, 71.500000) scale(1, -1) translate(-81.500000, -71.500000) "></path>
            </g>
        </g>
    </g>
</svg>