<?xml version="1.0" encoding="UTF-8"?>
<svg width="149px" height="171px" viewBox="0 0 149 171" version="1.1" xmlns="http://www.w3.org/2000/svg" xmlns:xlink="http://www.w3.org/1999/xlink">
    <!-- Generator: sketchtool 63.1 (101010) - https://sketch.com -->
    <title>E4D981A8-82B6-41DB-8BE8-2ED260150DCD</title>
    <desc>Created with sketchtool.</desc>
    <g id="Page-1" stroke="none" stroke-width="1" fill="none" fill-rule="evenodd">
        <g id="Ad-Homepage" transform="translate(-200.000000, -2579.000000)">
            <g id="Group-39" transform="translate(149.000000, 2579.000000)">
                <g id="Group-17" transform="translate(51.000000, 0.000000)">
                    <circle id="Oval" fill="#077CDC" opacity="0.100000001" cx="103.5" cy="45" r="45"></circle>
                    <g id="Group-14" transform="translate(0.000000, 46.500000)" fill-rule="nonzero">
                        <g id="sprint">
                            <g id="Group" transform="translate(4.108108, 4.082305)" fill="#E6E7E8">
                                <path d="M104.669459,0.0755226337 L54.1756757,0.0755226337 C53.9024865,0.0755226337 53.6416216,0.182683128 53.4495676,0.37455144 L25.2617838,28.3873251 C25.0389189,28.5781728 24.9043784,28.8588313 24.9043784,29.1609218 L24.9043784,95.7188148 C23.5384324,95.3728395 22.6243784,94.9329712 22.6079459,94.9248066 C21.6856757,94.4512593 20.6298919,94.3655309 19.6439459,94.6788477 C18.6538919,94.9931852 17.8476757,95.6718683 17.3721622,96.5883457 C16.3903243,98.4804938 17.1410811,100.814551 19.0472432,101.791243 C19.3645946,101.953514 21.6682162,103.083292 24.9043784,103.595621 L24.9043784,104.517202 C24.9043784,107.33093 27.208,109.620082 30.0395135,109.620082 L50.6796757,109.620082 L50.1733514,115.806815 C50.0891351,116.84372 50.4475676,117.875523 51.1562162,118.639934 C51.8648649,119.404346 52.8723784,119.843193 53.9178919,119.843193 C55.861027,119.843193 57.4683243,118.394996 57.6583243,116.473251 L58.3361622,109.620082 L104.669459,109.620082 C107.500973,109.620082 109.804595,107.33093 109.804595,104.517202 L109.804595,5.17840329 C109.804595,2.36569547 107.500973,0.0755226337 104.669459,0.0755226337 L104.669459,0.0755226337 Z" id="Path"></path>
                                <path d="M23.1491892,110.638617 C23.1491892,110.074239 22.6901081,109.618041 22.1221622,109.618041 L7.65032432,109.618041 C7.08237838,109.618041 6.6232973,110.074239 6.6232973,110.638617 C6.6232973,111.202996 7.08237838,111.659193 7.65032432,111.659193 L22.1221622,111.659193 C22.6901081,111.659193 23.1491892,111.202996 23.1491892,110.638617 Z" id="Path"></path>
                                <path d="M14.9237297,102.4587 C14.9237297,101.894321 14.4646486,101.438123 13.8967027,101.438123 L1.1132973,101.438123 C0.545351351,101.438123 0.0862702703,101.894321 0.0862702703,102.4587 C0.0862702703,103.023078 0.545351351,103.479276 1.1132973,103.479276 L13.8956757,103.479276 C14.4636216,103.479276 14.9237297,103.022058 14.9237297,102.4587 L14.9237297,102.4587 Z" id="Path"></path>
                                <path d="M18.7391351,117.8 L13.4232432,117.8 C12.8552973,117.8 12.3962162,118.256198 12.3962162,118.820576 C12.3962162,119.384955 12.8552973,119.841152 13.4232432,119.841152 L18.7401622,119.841152 C19.3081081,119.841152 19.7671892,119.384955 19.7671892,118.820576 C19.7671892,118.256198 19.3070811,117.8 18.7391351,117.8 Z" id="Path"></path>
                                <path d="M41.8410811,117.8 L23.1194054,117.8 C22.5514595,117.8 22.0923784,118.256198 22.0923784,118.820576 C22.0923784,119.384955 22.5514595,119.841152 23.1194054,119.841152 L41.8410811,119.841152 C42.409027,119.841152 42.8681081,119.384955 42.8681081,118.820576 C42.8681081,118.256198 42.409027,117.8 41.8410811,117.8 Z" id="Path"></path>
                            </g>
                            <g id="Group">
                                <g transform="translate(25.162162, 1.020576)">
                                    <path d="M0.771297297,28.1413663 L29.0135135,0.0755226337 L79.5072973,0.0755226337 C81.776,0.0755226337 83.6154054,1.90337449 83.6154054,4.15782716 L83.6154054,103.493564 C83.6154054,105.748016 81.776,107.575868 79.5072973,107.575868 L4.87735135,107.575868 C2.60864865,107.575868 0.769243243,105.748016 0.769243243,103.493564 L0.769243243,28.1393251 L0.771297297,28.1413663 Z" id="Path" fill="#D4FBFF"></path>
                                    <g fill="#FFFFFF" id="Path">
                                        <polygon points="0.769243243 28.1393251 0.769243243 28.1413663 0.77027027 28.1403457"></polygon>
                                        <polygon points="0.769243243 28.1413663 0.769243243 31.2010535 0.771297297 31.2030947 3.85237838 28.1413663"></polygon>
                                        <path d="M79.5083243,0.0765432099 L29.0135135,0.0765432099 L29.0124865,0.077563786 L29.0135135,0.0785843621 L29.0135135,3.1382716 L79.5072973,3.1382716 C81.776,3.1382716 83.6154058,4.96612346 83.6154058,7.22057613 L83.6154058,4.15884774 C83.6164324,1.90439506 81.777027,0.0765432099 79.5083243,0.0765432099 Z"></path>
                                    </g>
                                    <g transform="translate(33.891892, 13.012346)">
                                        <g transform="translate(11.297297, 7.399177)">
                                            <polygon id="Path" fill="#0089EF" points="2.4207027 31.2541235 17.9945405 31.2541235 17.9945405 38.5175638 2.4207027 38.5175638"></polygon>
                                            <path d="M2.5192973,31.2541235 L17.896973,31.2541235 C19.2855135,31.2541235 20.4101081,30.135572 20.4101081,28.7567737 L20.4101081,28.5424527 C20.4101081,27.1626337 19.2844865,26.0451029 17.896973,26.0451029 L2.5192973,26.0451029 C1.13075676,26.0451029 0.00616145992,27.1636543 0.00616145992,28.5424527 L0.00616145992,28.7567737 C0.00513513514,30.135572 1.13075676,31.2541235 2.5192973,31.2541235 Z" id="Path" fill="#6DC9F7"></path>
                                            <polygon id="Path" fill="#D4FBFF" points="0.609027027 13.4481317 10.2076216 0.248 19.8062162 13.4481317 17.9945405 26.0451029 2.4207027 26.0451029"></polygon>
                                            <ellipse id="Oval" fill="#6DC9F7" cx="10.2076216" cy="15.5627654" rx="1.50254054" ry="1.49310288"></ellipse>
                                        </g>
                                        <g fill="#0089EF">
                                            <g id="Oval">
                                                <ellipse cx="40.5244324" cy="2.58920165" rx="2.40118919" ry="2.386107"></ellipse>
                                                <ellipse cx="2.48540541" cy="2.58920165" rx="2.40118919" ry="2.386107"></ellipse>
                                            </g>
                                            <polygon id="Path" points="35.0544865 18.1540082 39.2807027 18.1540082 39.2807027 22.353679 35.0544865 22.353679"></polygon>
                                            <polygon id="Path" points="3.72810811 18.1540082 7.95432432 18.1540082 7.95432432 22.353679 3.72810811 22.353679"></polygon>
                                        </g>
                                    </g>
                                    <path d="M29.0114595,0.0765432099 L29.0135135,0.0785843621 L29.0135135,24.0600823 C29.0135135,26.314535 27.1741081,28.1423868 24.9054054,28.1423868 L0.769243243,28.1423868 L29.0114595,0.0765432099 Z" id="Path" fill="#0089EF"></path>
                                </g>
                                <g>
                                    <g transform="translate(17.716216, 58.683128)" fill="#FA759E">
                                        <path d="M58.6843243,9.90571193 C57.1088649,9.14538272 55.2756216,9.95469959 54.7230811,11.5416955 C54.5197297,12.1244444 52.5509189,17.232428 45.9974595,17.232428 C42.3833514,17.232428 40.1608649,15.6944198 37.5881622,13.914535 C34.7587027,11.9560494 31.5451351,9.73425514 26.5794595,9.94245267 C17.6052973,10.3139424 11.4872973,19.088856 11.2315676,19.4623868 C10.3421622,20.7595391 10.679027,22.5261564 11.9843784,23.4099753 C12.4773514,23.7437037 13.0370811,23.9039342 13.5916757,23.9039342 C14.5057297,23.9039342 15.4033514,23.4691687 15.9569189,22.661893 C16.0041622,22.5935144 20.7777838,15.8699588 26.8167027,15.6199177 C28.0768649,15.563786 29.147027,15.7750453 30.1504324,16.1516379 L22.5945946,29.1558189 C20.8496757,31.9573004 17.5714054,36.3049547 14.0466486,37.7592757 C9.49178378,39.6381564 4.45935135,37.1673416 4.42135135,37.1479506 C3.01945946,36.429465 1.29302703,36.9764938 0.57,38.3716214 C-0.153027027,39.766749 0.397459459,41.4802963 1.80140541,42.1987819 C2.014,42.3079835 5.6732973,44.1450206 10.3062162,44.1450206 C12.1795135,44.1450206 14.212,43.8449712 16.2393514,43.0080988 C19.1088649,41.8242305 21.6271351,39.5952922 23.6329189,37.3163457 L34.4208108,45.7299753 L33.4831351,57.2043128 C33.3537297,58.7841646 34.6097838,60.1374486 36.2047568,60.1374486 C37.6097297,60.1374486 38.7846486,59.0780905 38.9222703,57.6890864 L40.2317297,44.4379259 C40.356,43.185679 39.8517297,41.9518025 38.8842703,41.1394239 L32.6697297,35.919177 L40.7175135,22.0679177 C42.254973,22.5822881 43.9927027,22.9139753 45.9984865,22.9139753 C54.4889189,22.9139753 58.8435135,16.9527901 60.0646486,13.5808066 C60.5699459,12.1815967 60.0317838,10.5558189 58.6843243,9.90571193 L58.6843243,9.90571193 Z" id="Path"></path>
                                        <ellipse id="Oval" cx="43.5397838" cy="6.61537449" rx="6.4332973" ry="6.39288889"></ellipse>
                                    </g>
                                    <g fill="#3A2C60">
                                        <path d="M72.7720541,60.9702387 L88.3458919,60.9702387 C88.9138378,60.9702387 89.3729189,60.5140412 89.3729189,59.9496626 L89.3729189,53.507786 C90.7717297,53.0373004 91.7884865,51.7350453 91.7884865,50.1888724 L91.7884865,49.9745514 C91.7884865,48.473284 90.8323243,47.1975638 89.4971892,46.6933992 L91.1753514,35.0241317 C91.2123243,34.7618436 91.1465946,34.4954733 90.9904865,34.2811523 L81.3918919,21.0820412 C81.0047027,20.5513416 80.1142703,20.5513416 79.7270811,21.0820412 L70.1284865,34.2821728 C69.9734054,34.4964938 69.9066486,34.7628642 69.9436216,35.0251523 L71.6217838,46.6944198 C70.2866486,47.1985844 69.3304865,48.4743045 69.3304865,49.975572 L69.3304865,50.189893 C69.3304865,51.7360658 70.3472432,53.038321 71.7460541,53.5088066 L71.7460541,59.9506831 C71.745027,60.5140412 72.2041081,60.9702387 72.7720541,60.9702387 L72.7720541,60.9702387 Z M87.3188649,58.9290864 L73.7990811,58.9290864 L73.7990811,53.7067984 L87.3188649,53.7067984 L87.3188649,58.9290864 Z M80.558973,36.5223374 C80.8208649,36.5223374 81.0334595,36.7346173 81.0334595,36.9948642 C81.0334595,37.2551111 80.8208649,37.4673909 80.558973,37.4673909 C80.2970811,37.4673909 80.0834595,37.2551111 80.0834595,36.9948642 C80.0834595,36.7346173 80.2970811,36.5223374 80.558973,36.5223374 Z M79.5319459,24.8346996 L79.5319459,34.7026502 C78.6487027,35.0945514 78.0294054,35.9732675 78.0294054,36.9948642 C78.0294054,38.3808066 79.1632432,39.5085432 80.558973,39.5085432 C81.9526486,39.5085432 83.0875135,38.3818272 83.0875135,36.9948642 C83.0875135,35.9732675 82.4682162,35.095572 81.586,34.7026502 L81.586,24.8346996 L89.0822703,35.1435391 L87.4554595,46.4556049 L73.6624865,46.4556049 L72.0356757,35.1435391 L79.5319459,24.8346996 Z M71.3845405,49.9745514 C71.3845405,49.1601317 72.0510811,48.4977778 72.8706486,48.4977778 L88.2483243,48.4977778 C89.0678919,48.4977778 89.7344324,49.1601317 89.7344324,49.9745514 L89.7344324,50.1888724 C89.7344324,51.0032922 89.0678919,51.6656461 88.2483243,51.6656461 L72.8706486,51.6656461 C72.0510811,51.6656461 71.3845405,51.0032922 71.3845405,50.1888724 L71.3845405,49.9745514 Z" id="Shape"></path>
                                        <path d="M99.5784865,20.0288066 C101.469243,20.0288066 103.006703,18.5010041 103.006703,16.6221235 C103.006703,14.7442634 101.469243,13.2164609 99.5784865,13.2164609 C98.0492432,13.2164609 96.7654595,14.2237695 96.3258919,15.6015473 L64.7920541,15.6015473 C64.3535135,14.2237695 63.0697297,13.2164609 61.5394595,13.2164609 C59.6487027,13.2164609 58.1112432,14.7442634 58.1112432,16.6221235 C58.1112432,18.5010041 59.6487027,20.0288066 61.5394595,20.0288066 C63.0697297,20.0288066 64.3535135,19.0204774 64.7930811,17.6426996 L72.5502162,17.6426996 C67.6656757,20.309465 64.2805946,25.336823 63.9211351,31.1663539 L62.7831892,31.1663539 C62.2152432,31.1663539 61.7561622,31.6225514 61.7561622,32.18693 L61.7561622,36.3866008 C61.7561622,36.9509794 62.2152432,37.407177 62.7831892,37.407177 L67.0094054,37.407177 C67.5773514,37.407177 68.0364324,36.9509794 68.0364324,36.3866008 L68.0364324,32.18693 C68.0364324,31.6225514 67.5773514,31.1663539 67.0094054,31.1663539 L65.9751892,31.1663539 C66.5061622,23.6222551 72.8347027,17.6426996 80.558973,17.6426996 C88.2832432,17.6426996 94.6117838,23.6222551 95.1427568,31.1663539 L94.1075135,31.1663539 C93.5395676,31.1663539 93.0804865,31.6225514 93.0804865,32.18693 L93.0804865,36.3866008 C93.0804865,36.9509794 93.5395676,37.407177 94.1075135,37.407177 L98.3347568,37.407177 C98.9027027,37.407177 99.3617838,36.9509794 99.3617838,36.3866008 L99.3617838,32.18693 C99.3617838,31.6225514 98.9027027,31.1663539 98.3347568,31.1663539 L97.1968108,31.1663539 C96.8373514,25.336823 93.4522703,20.309465 88.5677297,17.6426996 L96.3248649,17.6426996 C96.7654595,19.0204774 98.0482162,20.0288066 99.5784865,20.0288066 L99.5784865,20.0288066 Z M61.5394595,17.9876543 C60.7825405,17.9876543 60.1652973,17.3742881 60.1652973,16.6221235 C60.1652973,15.8699588 60.7815135,15.2576132 61.5394595,15.2576132 C62.2974054,15.2576132 62.9136216,15.8699588 62.9136216,16.6221235 C62.9136216,17.3742881 62.2963784,17.9876543 61.5394595,17.9876543 Z M65.9823784,35.3660247 L63.8102162,35.3660247 L63.8102162,33.2075062 L65.9823784,33.2075062 L65.9823784,35.3660247 Z M97.3087568,35.3660247 L95.1355676,35.3660247 L95.1355676,33.2075062 L97.3087568,33.2075062 L97.3087568,35.3660247 Z M99.5784865,15.2576132 C100.335405,15.2576132 100.952649,15.8699588 100.952649,16.6221235 C100.952649,17.3742881 100.335405,17.9876543 99.5784865,17.9876543 C98.8215676,17.9876543 98.2053514,17.3742881 98.2053514,16.6221235 C98.2053514,15.8699588 98.8205405,15.2576132 99.5784865,15.2576132 Z" id="Shape"></path>
                                        <path d="M108.778595,75.0031605 C108.210649,75.0031605 107.751568,75.459358 107.751568,76.0237366 L107.751568,84.9537778 C107.751568,85.5181564 108.210649,85.9743539 108.778595,85.9743539 C109.346541,85.9743539 109.805622,85.5181564 109.805622,84.9537778 L109.805622,76.0237366 C109.805622,75.459358 109.346541,75.0031605 108.778595,75.0031605 Z" id="Path"></path>
                                        <path d="M104.670486,0.0765432099 L54.1756757,0.0765432099 C53.9024865,0.0765432099 53.6416216,0.183703704 53.4495676,0.375572016 L25.2607568,28.3863045 C25.0378919,28.5771523 24.9033514,28.8567901 24.9033514,29.1599012 L24.9033514,95.7157531 C23.5374054,95.3697778 22.6212973,94.93093 22.6079459,94.923786 C21.6867027,94.4492181 20.632973,94.3634897 19.6429189,94.6768066 C18.6538919,94.9921646 17.8476757,95.6698272 17.3721622,96.5863045 C16.3903243,98.4794733 17.1410811,100.813531 19.0441622,101.788181 C19.1715135,101.853498 21.5542162,103.052675 24.9033514,103.590519 L24.9033514,104.51516 C24.9033514,107.328889 27.206973,109.618041 30.0384865,109.618041 L50.6796757,109.618041 L50.1733514,115.804774 C50.0891351,116.841679 50.4475676,117.873481 51.1562162,118.637893 C51.8648649,119.402305 52.8723784,119.841152 53.9178919,119.841152 C55.86,119.841152 57.4672973,118.392955 57.6572973,116.47223 L58.3351351,109.618041 L104.669459,109.618041 C107.500973,109.618041 109.804595,107.328889 109.804595,104.51516 L109.804595,90.3118025 C109.804595,89.7474239 109.345514,89.2912263 108.777568,89.2912263 C108.209622,89.2912263 107.750541,89.7474239 107.750541,90.3118025 L107.750541,104.51516 C107.750541,106.203193 106.368162,107.576889 104.669459,107.576889 L58.5384865,107.576889 L58.9688108,103.22107 C59.1259459,101.633053 58.4881622,100.071572 57.2629189,99.0428313 L51.7046486,94.3736955 L58.9123243,81.967572 C60.4610811,82.4043786 62.0396216,82.617679 63.7147027,82.617679 C72.7196757,82.617679 77.4008649,76.3268477 78.7483243,72.6088889 C79.4549189,70.6565267 78.6394595,68.5327078 76.8503784,67.670321 C75.8500541,67.1875885 74.6895135,67.1528889 73.6676216,67.5733663 C72.6354595,67.9979259 71.8343784,68.8419424 71.4697838,69.8890535 C71.2900541,70.4013827 69.5533514,74.8939588 63.7136757,74.8939588 C60.4220541,74.8939588 58.4234595,73.5110782 55.8908108,71.758749 C53.0726486,69.808428 49.5787027,67.3753745 44.2525405,67.6050041 C34.7566486,67.9979259 28.3664865,77.1800494 28.0994595,77.5699095 C27.5150811,78.4231111 27.2994054,79.4508313 27.4924865,80.4632428 C27.6855676,81.4766749 28.2648108,82.3553909 29.1223784,82.9360988 C29.7694054,83.3749465 30.5252973,83.6066173 31.3078919,83.6066173 C32.5957838,83.6066173 33.7974054,82.9759012 34.5152973,81.9277695 C34.5604865,81.8644938 39.0783784,75.5491687 44.5791351,75.3215802 C45.1871351,75.2940247 45.7561081,75.3348477 46.3240541,75.4481317 L39.4368108,87.3011029 C38.4785946,88.8391111 35.0678378,93.9726091 31.3684865,95.4983704 C29.8916216,96.1086749 28.3408108,96.1995062 26.9584324,96.0709136 L26.9584324,30.1825185 L50.0675676,30.1825185 C52.8990811,30.1825185 55.2027027,27.8933663 55.2027027,25.0796379 L55.2027027,2.11769547 L104.670486,2.11769547 C106.369189,2.11769547 107.751568,3.49139095 107.751568,5.17942387 L107.751568,70.961679 C107.751568,71.5260576 108.210649,71.9822551 108.778595,71.9822551 C109.346541,71.9822551 109.805622,71.5260576 109.805622,70.961679 L109.805622,5.17942387 C109.805622,2.36569547 107.502,0.0765432099 104.670486,0.0765432099 L104.670486,0.0765432099 Z M30.0395135,107.576889 C28.3408108,107.576889 26.9584324,106.203193 26.9584324,104.51516 L26.9584324,103.815045 C27.3076216,103.835457 27.6609189,103.848724 28.0214054,103.848724 C30.2654595,103.848724 32.3944865,103.440494 34.3489189,102.634239 C36.7531892,101.641218 39.1451351,99.8807243 41.4692973,97.3905185 L51.0689189,104.877465 L50.8481081,107.577909 L30.0395135,107.577909 L30.0395135,107.576889 Z M32.1562162,97.3854156 C36.3054054,95.6728889 39.8517297,90.5159177 41.2002162,88.3492346 L48.7560541,75.3440329 C48.906,75.0848066 48.9347568,74.7725103 48.8330811,74.4908313 C48.7314054,74.2091523 48.5116216,73.9846255 48.2291892,73.8784856 C47.004973,73.4192263 45.7776757,73.2222551 44.4897838,73.2824691 C37.9157838,73.5539424 32.8771892,80.6908313 32.8237838,80.7683951 C32.2743243,81.5685267 31.0881081,81.7961152 30.2788108,81.2490864 C29.8731351,80.9745514 29.600973,80.5601975 29.5095676,80.0825679 C29.4181622,79.6049383 29.5198378,79.1211852 29.7961081,78.7180576 C30.0395135,78.3618765 35.8596757,69.9931523 44.3367568,69.6430947 C48.9573514,69.4369383 51.8854054,71.4740082 54.7158919,73.4335144 C57.3173514,75.2348313 59.775027,76.9351111 63.7116216,76.9351111 C70.9706486,76.9351111 73.1797838,71.2117202 73.4077838,70.5575309 C73.5803243,70.0615309 73.9603243,69.6604444 74.4512432,69.4593909 C74.9390811,69.2583374 75.4710811,69.2746667 75.9507027,69.5063374 C76.7784865,69.9064033 77.1564324,70.9657613 76.8123784,71.9179588 C75.6467027,75.1337942 71.5765946,80.5755062 63.7116216,80.5755062 C61.9718378,80.5755062 60.3511892,80.3162798 58.7582703,79.7835391 C58.2950811,79.6304527 57.7856757,79.8192593 57.5402162,80.2407572 L49.4934595,94.0909959 C49.2449189,94.5186173 49.3404324,95.0615638 49.7204324,95.3810041 L55.934973,100.601251 C56.6446486,101.197267 57.0143784,102.101498 56.922973,103.020016 L55.6135135,116.271177 C55.5272432,117.141728 54.7990811,117.797959 53.9189189,117.797959 C53.4372432,117.797959 52.9935676,117.60507 52.666973,117.252971 C52.3403784,116.900872 52.1822162,116.444675 52.2212432,115.968066 L53.1589189,104.493728 C53.1856216,104.151835 53.0408108,103.820148 52.7686486,103.607868 L41.9807568,95.1942387 C41.7928108,95.0482963 41.5699459,94.976856 41.3470811,94.976856 C41.0615676,94.976856 40.7760541,95.0952428 40.5737297,95.325893 C38.2547027,97.9589794 35.8945946,99.782749 33.5591351,100.747193 C31.8563243,101.44935 29.9912432,101.806551 28.0193514,101.806551 C23.6072432,101.806551 20.1307568,100.048099 19.9849189,99.9735967 C19.0872973,99.5143374 18.734,98.4141564 19.1961622,97.5211523 C19.4210811,97.088428 19.8010811,96.7700082 20.2663243,96.6210041 C20.7336216,96.4730206 21.2286486,96.5138436 21.6754054,96.7434733 C21.8992973,96.854716 27.1874595,99.4306502 32.1562162,97.3854156 Z M50.0675676,28.1413663 L28.4127027,28.1413663 L53.1486486,3.56079012 L53.1486486,25.0796379 C53.1486486,26.7676708 51.7662703,28.1413663 50.0675676,28.1413663 Z" id="Shape"></path>
                                        <path d="M61.254973,57.8860576 C57.1417297,57.8860576 53.7946486,61.2121152 53.7946486,65.2995226 C53.7946486,69.38693 57.1417297,72.7129877 61.254973,72.7129877 C65.3682162,72.7129877 68.7152973,69.38693 68.7152973,65.2995226 C68.7152973,61.2121152 65.3682162,57.8860576 61.254973,57.8860576 Z M61.254973,70.6708148 C58.2745405,70.6708148 55.8487027,68.2612346 55.8487027,65.2985021 C55.8487027,62.3357695 58.2735135,59.9261893 61.254973,59.9261893 C64.2364324,59.9261893 66.6612432,62.3357695 66.6612432,65.2985021 C66.6612432,68.2612346 64.2364324,70.6708148 61.254973,70.6708148 Z" id="Shape"></path>
                                        <path d="M23.1502162,110.638617 C23.1502162,110.074239 22.6911351,109.618041 22.1231892,109.618041 L7.65032432,109.618041 C7.08237838,109.618041 6.6232973,110.074239 6.6232973,110.638617 C6.6232973,111.202996 7.08237838,111.659193 7.65032432,111.659193 L22.1231892,111.659193 C22.6911351,111.659193 23.1502162,111.202996 23.1502162,110.638617 Z" id="Path"></path>
                                        <path d="M14.9227027,102.457679 C14.9227027,101.8933 14.4636216,101.437103 13.8956757,101.437103 L1.11432432,101.437103 C0.546378378,101.437103 0.0872972973,101.8933 0.0872972973,102.457679 C0.0872972973,103.022058 0.546378378,103.478255 1.11432432,103.478255 L13.8956757,103.478255 C14.4636216,103.478255 14.9227027,103.022058 14.9227027,102.457679 Z" id="Path"></path>
                                        <path d="M18.7401622,117.8 L13.4222162,117.8 C12.8542703,117.8 12.3951892,118.256198 12.3951892,118.820576 C12.3951892,119.384955 12.8542703,119.841152 13.4222162,119.841152 L18.7401622,119.841152 C19.3081081,119.841152 19.7671892,119.384955 19.7671892,118.820576 C19.7671892,118.256198 19.3081081,117.8 18.7401622,117.8 Z" id="Path"></path>
                                        <path d="M41.8410811,117.8 L23.1194054,117.8 C22.5514595,117.8 22.0923784,118.256198 22.0923784,118.820576 C22.0923784,119.384955 22.5514595,119.841152 23.1194054,119.841152 L41.8410811,119.841152 C42.409027,119.841152 42.8681081,119.384955 42.8681081,118.820576 C42.8681081,118.256198 42.409027,117.8 41.8410811,117.8 Z" id="Path"></path>
                                    </g>
                                </g>
                            </g>
                        </g>
                    </g>
                </g>
            </g>
        </g>
    </g>
</svg>