<?xml version="1.0" encoding="UTF-8"?>
<svg width="58px" height="57px" viewBox="0 0 58 57" version="1.1" xmlns="http://www.w3.org/2000/svg" xmlns:xlink="http://www.w3.org/1999/xlink">
    <!-- Generator: Sketch 63.1 (92452) - https://sketch.com -->
    <title>Group 50</title>
    <desc>Created with Sketch.</desc>
    <g id="Page-1" stroke="none" stroke-width="1" fill="none" fill-rule="evenodd">
        <g id="Ad-Homepage" transform="translate(-1154.000000, -4837.000000)">
            <g id="Group-42" transform="translate(0.000000, 4792.000000)">
                <g id="Group-41">
                    <g id="Group-29" transform="translate(1154.500000, 45.000000)">
                        <g id="Group-50">
                            <g id="Group-20" fill="#C5DBE2">
                                <g id="Group-67">
                                    <g id="Group-66">
                                        <g id="Group-63">
                                            <circle id="Oval" cx="28.5" cy="28.5" r="28.5"></circle>
                                        </g>
                                    </g>
                                </g>
                            </g>
                            <path d="M32.0576923,28.5 C32.0576923,30.4648989 30.4648989,32.0576923 28.5,32.0576923 C26.5351011,32.0576923 24.9423077,30.4648989 24.9423077,28.5 C24.9423077,26.5351011 26.5351011,24.9423077 28.5,24.9423077 C30.4648989,24.9423077 32.0576923,26.5351011 32.0576923,28.5 Z" id="Path" fill="#FFFFFF" fill-rule="nonzero"></path>
                            <path d="M36.6104349,22.4073648 C36.4400718,21.9457175 36.1682819,21.5278618 35.8151246,21.1848754 C35.4721382,20.8317181 35.054565,20.5599282 34.5926352,20.3895651 C34.218006,20.2440643 33.6552145,20.070876 32.6186272,20.0236941 C31.4972821,19.972557 31.1610763,19.9615385 28.3222566,19.9615385 C25.4831544,19.9615385 25.1469486,19.9722745 24.0258861,20.0234116 C22.9892988,20.070876 22.4262248,20.2440643 22.051878,20.3895651 C21.5899483,20.5599282 21.1720925,20.8317181 20.8293887,21.1848754 C20.4762313,21.5278618 20.2044415,21.945435 20.0337959,22.4073648 C19.8882951,22.781994 19.7151068,23.345068 19.6679249,24.3816553 C19.6167878,25.5027179 19.6057692,25.8389237 19.6057692,28.6780259 C19.6057692,31.5168456 19.6167878,31.8530514 19.6679249,32.9743964 C19.7151068,34.0109837 19.8882951,34.5737752 20.0337959,34.9484045 C20.2044415,35.4103343 20.4759488,35.8279075 20.8291062,36.1708938 C21.1720925,36.5240512 21.5896657,36.7958411 22.0515955,36.9662041 C22.4262248,37.1119874 22.9892988,37.2851758 24.0258861,37.3323576 C25.1469486,37.3834948 25.4828719,37.3942308 28.3219741,37.3942308 C31.1613588,37.3942308 31.4975646,37.3834948 32.6183447,37.3323576 C33.654932,37.2851758 34.218006,37.1119874 34.5926352,36.9662041 C35.5198851,36.6085264 36.2527572,35.8756543 36.6104349,34.9484045 C36.7559357,34.5737752 36.929124,34.0109837 36.9765884,32.9743964 C37.0277255,31.8530514 37.0384615,31.5168456 37.0384615,28.6780259 C37.0384615,25.8389237 37.0277255,25.5027179 36.9765884,24.3816553 C36.9294065,23.345068 36.7562182,22.781994 36.6104349,22.4073648 L36.6104349,22.4073648 Z M28.3222566,34.1372728 C25.3068583,34.1372728 22.8624447,31.6931417 22.8624447,28.6777434 C22.8624447,25.662345 25.3068583,23.2182139 28.3222566,23.2182139 C31.3373725,23.2182139 33.7817861,25.662345 33.7817861,28.6777434 C33.7817861,31.6931417 31.3373725,34.1372728 28.3222566,34.1372728 Z M33.9976358,24.2782509 C33.2930163,24.2782509 32.7217491,23.7069837 32.7217491,23.0023642 C32.7217491,22.2977447 33.2930163,21.7264774 33.9976358,21.7264774 C34.7022553,21.7264774 35.2735226,22.2977447 35.2735226,23.0023642 C35.2732401,23.7069837 34.7022553,24.2782509 33.9976358,24.2782509 Z" id="Shape" fill="#FFFFFF" fill-rule="nonzero"></path>
                            <path d="M28.5,10 C18.2842941,10 10,18.2842941 10,28.5 C10,38.7157059 18.2842941,47 28.5,47 C38.7157059,47 47,38.7157059 47,28.5 C47,18.2842941 38.7157059,10 28.5,10 Z M39.0589676,32.8796921 C39.0075913,34.0105362 38.827774,34.7825928 38.5652466,35.4583892 C38.0133743,36.8853531 36.8853531,38.0133743 35.4583892,38.5652466 C34.782875,38.827774 34.0105362,39.007309 32.8799744,39.0589676 C31.7471543,39.1106262 31.3852615,39.1230469 28.5002823,39.1230469 C25.6150208,39.1230469 25.2534104,39.1106262 24.1203079,39.0589676 C22.9897461,39.007309 22.2174072,38.827774 21.541893,38.5652466 C20.8327866,38.2984848 20.1908645,37.8804169 19.6601639,37.3398361 C19.1198654,36.8094177 18.7017974,36.1672134 18.4350357,35.4583892 C18.1725083,34.782875 17.992691,34.0105362 17.9413147,32.8799744 C17.8890915,31.746872 17.8769531,31.3849792 17.8769531,28.5 C17.8769531,25.6150208 17.8890915,25.253128 17.9410324,24.1203079 C17.9924087,22.9894638 18.1719436,22.2174072 18.4344711,21.5416108 C18.7012329,20.8327866 19.1195831,20.1905823 19.6601639,19.6601639 C20.1905823,19.1195831 20.8327866,18.7015152 21.5416108,18.4347534 C22.2174072,18.172226 22.9894638,17.992691 24.1203079,17.9410324 C25.253128,17.8893738 25.6150208,17.8769531 28.5,17.8769531 C31.3849792,17.8769531 31.746872,17.8893738 32.8796921,17.9413147 C34.0105362,17.992691 34.7825928,18.172226 35.4583892,18.4344711 C36.1672134,18.7012329 36.8094177,19.1195831 37.3401184,19.6601639 C37.8804169,20.1908645 38.2987671,20.8327866 38.5652466,21.5416108 C38.8280564,22.2174072 39.0075913,22.9894638 39.0592499,24.1203079 C39.1109085,25.253128 39.1230469,25.6150208 39.1230469,28.5 C39.1230469,31.3849792 39.1109085,31.746872 39.0589676,32.8796921 L39.0589676,32.8796921 Z" id="Shape" fill="#FFFFFF" fill-rule="nonzero"></path>
                        </g>
                    </g>
                </g>
            </g>
        </g>
    </g>
</svg>