<?xml version="1.0" encoding="UTF-8"?>
<svg width="57px" height="57px" viewBox="0 0 57 57" version="1.1" xmlns="http://www.w3.org/2000/svg" xmlns:xlink="http://www.w3.org/1999/xlink">
    <!-- Generator: Sketch 63.1 (92452) - https://sketch.com -->
    <title>Group 48</title>
    <desc>Created with Sketch.</desc>
    <g id="Page-1" stroke="none" stroke-width="1" fill="none" fill-rule="evenodd">
        <g id="Ad-Homepage" transform="translate(-1064.000000, -4837.000000)">
            <g id="Group-42" transform="translate(0.000000, 4792.000000)">
                <g id="Group-41">
                    <g id="Group-47" transform="translate(1064.000000, 45.000000)">
                        <g id="Group-48">
                            <g id="Group-66">
                                <g id="Group-63" fill="#C5DBE2">
                                    <circle id="Oval" cx="28.5" cy="28.5" r="28.5"></circle>
                                </g>
                                <g id="dribbble" transform="translate(11.000000, 12.000000)"></g>
                            </g>
                            <path d="M33.6470588,30.8357564 C35.4149865,35.0794379 36.7277306,39.448371 37.5808905,43.9117647 C38.7979223,43.2077462 39.9354688,42.3617759 40.969327,41.38116 C43.6547729,38.8330724 45.3877712,35.6224558 46,32.1378514 C43.3618602,31.102438 40.472613,30.5294118 37.444748,30.5294118 C36.1504313,30.5294118 34.8819679,30.6353538 33.6470588,30.8357564 L33.6470588,30.8357564 Z" id="Path" fill="#FFFFFF" fill-rule="nonzero"></path>
                            <path d="M40.8529412,16.9819285 C40.8479237,16.9772703 40.8431704,16.9720946 40.838417,16.9674364 C37.56943,13.764158 33.2235443,12 28.6009078,12 C26.793313,12 25.0279702,12.2709511 23.3529412,12.791115 C26.0377938,16.0875571 28.3996825,19.6055216 30.423819,23.3235294 C34.237065,21.7368999 37.7495293,19.5871477 40.8529412,16.9819285 Z" id="Path" fill="#FFFFFF" fill-rule="nonzero"></path>
                            <path d="M42.3396326,19.2058824 C39.1143442,21.9656782 35.5102257,24.202132 31.5882353,25.873543 C32.1664222,27.0330795 32.7124294,28.2111206 33.2278267,29.4066239 C34.6670148,29.1337458 36.1355047,28.9945701 37.6254477,28.9945701 C40.511411,28.9945701 43.3183643,29.5116572 45.981948,30.5294118 C45.9934594,30.2729533 46,30.0157128 46,29.7574299 C46,25.8813618 44.7122916,22.2031109 42.3396326,19.2058824 L42.3396326,19.2058824 Z" id="Path" fill="#FFFFFF" fill-rule="nonzero"></path>
                            <path d="M18.2058824,43.3004209 C21.1939096,45.6990813 24.855174,47 28.7117683,47 C31.1630288,47 33.5351156,46.4736599 35.7058824,45.4748402 C34.892268,40.6481893 33.5895475,35.9911192 31.8513715,31.5588235 C25.8109885,33.2466315 20.8345024,37.5986697 18.2058824,43.3004209 L18.2058824,43.3004209 Z" id="Path" fill="#FFFFFF" fill-rule="nonzero"></path>
                            <path d="M27.8589119,30.6722298 C28.7428007,30.2949446 29.6437326,29.975337 30.5588235,29.7123485 C30.0758443,28.5963676 29.5634983,27.4962611 29.0244075,26.4117647 C24.3820907,28.1510864 19.5006443,29.0323886 14.4862605,29.0323886 C13.3212894,29.0323886 12.1639223,28.9839712 11.0149456,28.8892531 C11.0057685,29.1218152 11,29.3551712 11,29.5893208 C11,34.2207212 12.7874427,38.5748463 16.0330002,41.8497663 C16.0340491,41.8508246 16.0353601,41.8518829 16.0364089,41.8529412 C17.1589029,39.5939925 18.6269815,37.5408838 20.4157353,35.7356827 C22.5660679,33.5661606 25.0701133,31.8625566 27.8589119,30.6722298 Z" id="Path" fill="#FFFFFF" fill-rule="nonzero"></path>
                            <path d="M28.5,24.986126 C26.3849112,21.1101978 23.9102819,17.4533217 21.1212585,14.0588235 C19.2416933,14.9202306 17.5100783,16.1110229 16.0017484,17.6034826 C13.3049218,20.2719339 11.579834,23.6451727 11,27.3033944 C12.1205048,27.394083 13.25352,27.4411765 14.397414,27.4411765 C19.3477605,27.4411765 24.0976673,26.5741182 28.5,24.986126 Z" id="Path" fill="#FFFFFF" fill-rule="nonzero"></path>
                        </g>
                    </g>
                </g>
            </g>
        </g>
    </g>
</svg>