<?xml version="1.0" encoding="UTF-8"?>
<svg width="227px" height="54px" viewBox="0 0 227 54" version="1.1" xmlns="http://www.w3.org/2000/svg" xmlns:xlink="http://www.w3.org/1999/xlink">
    <!-- Generator: sketchtool 63.1 (101010) - https://sketch.com -->
    <title>64793848-3C21-4729-9FCD-421DFFBE32F8</title>
    <desc>Created with sketchtool.</desc>
    <g id="Page-1" stroke="none" stroke-width="1" fill="none" fill-rule="evenodd">
        <g id="Ad-Homepage" transform="translate(-139.000000, -32.000000)">
            <g id="Group-22" transform="translate(139.000000, 32.000000)">
                <g id="signboard_1" transform="translate(72.620968, 14.145161)" fill="#FFFFFE">
                    <g id="Group-18">
                        <path d="M27.0051312,14.3272161 C27.0051312,22.2845516 21.4454785,27.1185968 14.13278,27.1185968 C5.92476912,27.1185968 0.029818499,21.0949258 0.029818499,13.6209774 C0.029818499,6.07293871 6.03657393,0.0492677419 13.7225571,0.0492677419 C18.7222537,0.0492677419 22.938093,2.50330645 25.1392902,5.99861613 L20.0651931,8.89882258 C18.9832675,7.18847419 16.6328613,5.84985484 13.6851529,5.84985484 C9.28270033,5.84985484 5.99916972,9.08480323 5.99916972,13.6582548 C5.99916972,18.0830613 9.13349131,21.3177194 14.2076467,21.3177194 C17.6773244,21.3177194 19.9533883,19.7934097 20.8861049,17.3022677 L13.9092286,17.3022677 L13.9092286,12.0962032 L27.0051312,12.0962032 L27.0051312,14.3272161 Z" id="Fill-2"></path>
                        <path d="M42.6726317,17.3022561 C42.6726317,14.6618884 40.807315,12.9142626 38.3820422,12.9142626 C35.9567693,12.9142626 34.0913944,14.6618884 34.0913944,17.3022561 C34.0913944,19.9421013 35.9567693,21.6897271 38.3820422,21.6897271 C40.807315,21.6897271 42.6726317,19.9421013 42.6726317,17.3022561 M28.4948035,17.3022561 C28.4948035,11.7619142 32.8971979,7.48586903 38.3820422,7.48586903 C43.8663039,7.48586903 48.2692225,11.7619142 48.2692225,17.3022561 C48.2692225,22.84254 43.8663039,27.1186432 38.3820422,27.1186432 C32.8971979,27.1186432 28.4948035,22.84254 28.4948035,17.3022561" id="Fill-4"></path>
                        <path d="M65.1687666,17.3022561 C65.1687666,14.5131852 63.3033916,12.7655594 60.7289097,12.7655594 C58.1544861,12.7655594 56.2891112,14.5131852 56.2891112,17.3022561 C56.2891112,20.0908045 58.1544861,21.8384303 60.7289097,21.8384303 C63.3033916,21.8384303 65.1687666,20.0908045 65.1687666,17.3022561 M70.7653574,17.3022561 C70.7653574,22.84254 66.7357234,27.1186432 61.8482396,27.1186432 C59.3486244,27.1186432 57.5201876,26.2632368 56.2891112,24.8502948 L56.2891112,34.0345335 L50.6925203,35.6897787 L50.6925203,8.00630129 L56.2891112,8.00630129 L56.2891112,9.7539271 C57.5201876,8.34104323 59.3486244,7.48586903 61.8482396,7.48586903 C66.7357234,7.48586903 70.7653574,11.7619142 70.7653574,17.3022561" id="Fill-6"></path>
                        <path d="M84.3818311,7.63457226 L84.3818311,13.9557077 C82.068363,13.5836884 78.7852402,14.5131852 78.7852402,18.1944755 L78.7852402,26.5979206 L73.1886494,26.5979206 L73.1886494,8.00630129 L78.7852402,8.00630129 L78.7852402,11.3158045 C79.5312853,8.82443032 82.0314249,7.63457226 84.3818311,7.63457226" id="Fill-8"></path>
                        <path d="M98.9314583,17.3022561 C98.9314583,14.6618884 97.0660834,12.9142626 94.6408105,12.9142626 C92.2155376,12.9142626 90.350221,14.6618884 90.350221,17.3022561 C90.350221,19.9421013 92.2155376,21.6897271 94.6408105,21.6897271 C97.0660834,21.6897271 98.9314583,19.9421013 98.9314583,17.3022561 M84.7536301,17.3022561 C84.7536301,11.7619142 89.1560245,7.48586903 94.6408105,7.48586903 C100.12513,7.48586903 104.528049,11.7619142 104.528049,17.3022561 C104.528049,22.84254 100.12513,27.1186432 94.6408105,27.1186432 C89.1560245,27.1186432 84.7536301,22.84254 84.7536301,17.3022561" id="Fill-10"></path>
                        <path d="M113.66774,13.3603897 L113.66774,19.9421187 C113.66774,21.5410413 115.048025,21.6897445 117.510236,21.5410413 L117.510236,26.59788 C110.197537,27.3414542 108.071149,25.1477187 108.071149,19.9421187 L108.071149,13.3603897 L105.086036,13.3603897 L105.086036,8.00631871 L108.071149,8.00631871 L108.071149,4.47402194 L113.66774,2.80071871 L113.66774,8.00631871 L117.510236,8.00631871 L117.510236,13.3603897 L113.66774,13.3603897 Z" id="Fill-12"></path>
                        <path d="M132.806899,17.3022561 C132.806899,14.6618884 130.941524,12.9142626 128.516251,12.9142626 C126.090978,12.9142626 124.225661,14.6618884 124.225661,17.3022561 C124.225661,19.9421013 126.090978,21.6897271 128.516251,21.6897271 C130.941524,21.6897271 132.806899,19.9421013 132.806899,17.3022561 M118.629071,17.3022561 C118.629071,11.7619142 123.031465,7.48586903 128.516251,7.48586903 C134.000571,7.48586903 138.40349,11.7619142 138.40349,17.3022561 C138.40349,22.84254 134.000571,27.1186432 128.516251,27.1186432 C123.031465,27.1186432 118.629071,22.84254 118.629071,17.3022561" id="Fill-14"></path>
                        <polygon id="Fill-16" points="154.071934 21.3923206 154.071934 26.5979206 139.148061 26.5979206 139.148061 22.8793529 146.199279 13.211669 139.520879 13.211669 139.520879 8.00630129 153.698649 8.00630129 153.698649 11.7246368 146.647431 21.3923206"></polygon>
                    </g>
                </g>
                <path d="M21.0333426,3.12363847 L21.0333426,11.0951611 C18.0743675,11.5489191 15.255503,12.6429549 12.7513324,14.327336 L12.7513324,14.327336 C7.10735167,18.122853 3.73786064,24.4325747 3.73786064,31.2062389 L3.73786064,31.2062389 C3.73786064,34.2495663 4.39692979,37.1779555 5.69637109,39.9098734 L5.69637109,39.9098734 C6.09707111,40.7523258 6.55783524,41.5620136 7.0681464,42.3374818 L7.0681464,42.3374818 C7.04261332,42.3554645 7.01754766,42.3744948 6.99470226,42.3972496 L6.99470226,42.3972496 L1.13634878,48.2324372 C0.543946107,48.8222004 0.217741935,49.6065146 0.217741935,50.4408195 L0.217741935,50.4408195 C0.217741935,51.2752989 0.543946107,52.0596131 1.13634878,52.6495509 L1.13634878,52.6495509 C1.72863459,53.2394887 2.51607031,53.5645161 3.35375421,53.5645161 L3.35375421,53.5645161 C4.19143811,53.5645161 4.97893226,53.2394887 5.57098436,52.6495509 L5.57098436,52.6495509 L11.266265,46.9770225 C12.4622885,47.9496023 13.7673973,48.7928694 15.1631866,49.476329 L15.1631866,49.476329 C15.1638877,49.47662 15.1642967,49.4769692 15.1648226,49.4772602 L15.1648226,49.4772602 C17.9794218,50.8564588 21.009387,51.5559224 24.1701728,51.5559224 L24.1701728,51.5559224 C28.9381992,51.5559224 33.4757267,49.9040732 37.0756583,46.9803979 L37.0756583,46.9803979 L42.7674332,52.6495509 C43.3787666,53.2584026 44.1819194,53.5631776 44.984897,53.5631776 L44.984897,53.5631776 C45.7878162,53.5631776 46.591086,53.2584026 47.2023609,52.6495509 L47.2023609,52.6495509 C47.7947051,52.0596131 48.1209677,51.2752989 48.1209677,50.4408195 L48.1209677,50.4408195 C48.1209677,49.6065146 47.7947051,48.8222004 47.2023609,48.2324372 L47.2023609,48.2324372 L41.2759971,42.3295671 C43.4498736,39.0205728 44.6005569,35.1821068 44.6005569,31.2062389 L44.6005569,31.2062389 C44.6005569,30.7768652 44.5864173,30.3456292 44.5584886,29.924694 L44.5584886,29.924694 C44.5584886,29.9236465 44.5580212,29.9226571 44.5580212,29.9216678 L44.5580212,29.9216678 C43.9635736,20.3811096 36.6639153,12.5441955 27.3054255,11.0990602 L27.3054255,11.0990602 L27.3054255,3.12363847 C27.3054255,1.40131331 25.8985349,0 24.1693548,0 L24.1693548,0 C22.4402332,0 21.0333426,1.40131331 21.0333426,3.12363847 M17.5973019,41.5444964 C17.5921602,41.5410046 17.5867264,41.5374547 17.5815263,41.5339629 L17.5815263,41.5339629 C16.0752495,40.5768052 14.7714845,39.2806529 13.8111016,37.7852359 L13.8111016,37.7852359 C13.8080633,37.7806384 13.8050835,37.7762736 13.8021036,37.7716761 L13.8021036,37.7716761 C13.8014609,37.7708032 13.8009351,37.7699302 13.8003508,37.7689991 L13.8003508,37.7689991 C12.544789,35.8072535 11.881104,33.5378814 11.881104,31.2062389 L11.881104,31.2062389 C11.881104,25.8820747 15.4525811,21.0696323 20.5663851,19.5039139 L20.5663851,19.5039139 C20.587536,19.4971049 20.6084533,19.4895975 20.6285526,19.4806353 L20.6285526,19.4806353 C20.7117542,19.4570657 20.795657,19.4383846 20.8791508,19.4158626 L20.8791508,19.4158626 C21.9548708,19.1176638 23.0619668,18.9658873 24.1701728,18.9658873 L24.1701728,18.9658873 C30.9463152,18.9658873 36.4592416,24.4569009 36.4592416,31.2062389 L36.4592416,31.2062389 C36.4592416,32.1390123 36.3490462,33.0794094 36.1318689,34.0013582 L36.1318689,34.0013582 C36.1193653,34.0547244 36.1159764,34.1084398 36.1207091,34.1610494 L36.1207091,34.1610494 C36.0956435,34.2039984 36.0742003,34.2492753 36.0612877,34.2982185 L36.0612877,34.2982185 C34.6481453,39.6845948 29.7584716,43.4465906 24.1701728,43.4465906 L24.1701728,43.4465906 C21.8370797,43.4465906 19.5644597,42.7887374 17.5973019,41.5444964" id="Fill-19" fill="#FFFFFF"></path>
            </g>
        </g>
    </g>
</svg>